<?xml version="1.0" encoding="utf-8"?>
<!-- Generator: Adobe Illustrator 24.1.1, SVG Export Plug-In . SVG Version: 6.00 Build 0)  -->
<svg version="1.1" id="레이어_1" xmlns="http://www.w3.org/2000/svg" xmlns:xlink="http://www.w3.org/1999/xlink" x="0px"
	 y="0px" viewBox="0 0 1232 206" style="enable-background:new 0 0 1232 206;" xml:space="preserve">
<style type="text/css">
	.st0{fill:#D93729;}
</style>
<g transform="translate(0.000000,206.000000) scale(0.100000,-0.100000)">
	<path d="M8991,2024c-76-40-108-138-69-214c60-117,200-122,276-10c20,29,23,44,20,88c-7,85-62,142-145,149
		C9041,2039,9014,2035,8991,2024z"/>
	<path d="M70,1260V520h420h420v130v130l-282,2l-283,3l-3,608l-2,607H205H70V1260z"/>
	<path d="M4860,1255V520h140h140v735v735h-140h-140V1255z"/>
	<path d="M5400,1250V520h440h440v130v130h-310h-310l2,178l3,177l278,3l277,2v125v125h-280h-280v170v170h305h305v125v125h-435h-435
		V1250z"/>
	<path d="M1435,1590c-202-41-357-189-411-395c-18-64-18-236,0-300c34-128,102-230,203-302c93-66,183-95,318-100c130-6,216,11,309,60
		c59,31,166,125,166,146c0,10-180,121-197,121c-5,0-22-13-38-30c-45-47-105-65-215-65c-84,0-102,3-152,28c-66,32-111,82-132,144
		l-15,43h405h404v103c0,59-6,127-15,160c-47,182-193,334-364,379C1632,1600,1504,1604,1435,1590z M1652,1354c82-27,152-104,172-186
		l6-28h-280c-223,0-280,3-280,13c0,30,55,119,93,152C1434,1366,1556,1387,1652,1354z"/>
	<path d="M2613,1585c-167-47-311-186-364-354c-30-92-30-250,0-342c40-127,151-258,264-314c88-42,197-60,290-47
		c104,15,156,40,228,109l61,58l-4-115c-3-93-8-123-26-157c-45-87-137-133-263-133c-100,0-164,24-227,87l-54,54l-101-58
		c-55-32-102-63-104-70c-2-6,24-41,58-77c200-215,606-223,831-17c64,58,108,139,127,229c7,35,11,237,11,592v540h-125h-125v-71v-72
		l-41,46c-26,31-66,59-115,83c-67,34-83,37-172,40C2697,1599,2648,1595,2613,1585z M2938,1325c96-52,143-129,150-245
		c5-95-21-170-79-230c-63-64-117-85-224-85c-104,0-156,20-220,83c-113,111-113,313,1,426c64,64,128,87,234,83
		C2871,1355,2893,1349,2938,1325z"/>
	<path d="M3891,1584c-81-22-148-62-217-131c-246-246-207-692,77-882c92-61,179-85,293-78c122,6,190,33,266,104l60,55v-66v-66h130
		h130v525v525h-130h-130v-67v-67l-47,46c-53,51-125,91-193,107C4067,1604,3955,1601,3891,1584z M4184,1333c68-22,136-91,165-166
		c59-158-5-334-145-403c-46-23-70-28-133-28c-99,0-165,28-225,95c-55,61-76,121-76,214c0,91,21,152,72,210
		C3927,1352,4043,1378,4184,1333z"/>
	<path d="M6923,1585c-67-18-121-52-167-106l-36-43v67v67h-125h-125v-525V520h125h125v308c0,173,5,327,11,352c24,106,98,170,208,178
		c111,8,185-30,222-113c17-36,19-72,19-382V520h131h130l-3,383c-4,360-5,385-25,439c-46,123-126,202-242,238
		C7097,1603,6999,1605,6923,1585z"/>
	<path d="M7981,1585c-286-81-452-392-365-687c25-82,59-141,118-205c69-75,118-109,199-138c90-33,185-40,276-21c89,19,142,48,204,115
		l47,50v-99c0-213-91-310-290-310c-103,0-162,22-228,86l-56,54l-98-56c-54-31-101-60-104-65c-9-15,53-93,105-132
		c174-133,445-155,656-53c119,57,194,137,238,254c21,56,22,71,25,625l3,567h-126h-125v-71v-70l-50,51c-31,31-75,63-116,82
		c-57,27-80,32-163,35C8066,1599,8017,1595,7981,1585z M8275,1339c145-54,217-216,169-380c-23-77-109-161-190-185
		c-72-21-171-15-236,14c-63,27-123,92-148,158c-62,167,16,342,177,400C8105,1366,8210,1363,8275,1339z"/>
	<path d="M9887,1590c-66-17-134-58-176-107l-41-48v68v67h-125h-125v-525V520h124h125l3,333c3,325,4,333,26,380
		c42,85,116,127,221,127c90,0,158-40,192-115c17-36,19-71,19-382V520h130h130v353c0,456-11,509-121,619c-71,71-142,100-254,104
		C9966,1598,9908,1595,9887,1590z"/>
	<path d="M10946,1584c-239-58-400-275-400-539c0-275,162-483,421-541c148-33,332-8,449,61c43,25,144,120,144,135
		c0,8-185,120-199,120c-4,0-18-11-31-24c-47-51-106-70-215-70c-83-1-108,3-150,22c-77,35-125,89-149,169l-7,23l403,2l403,3l-1,120
		c-1,101-5,131-26,185c-65,175-208,304-376,339C11141,1604,11018,1602,10946,1584z M11186,1355c84-25,147-92,174-186l9-29h-280
		c-314,0-297-5-255,78C10898,1343,11040,1399,11186,1355z"/>
	<path d="M8930,1045V520h130h130v525v525h-130h-130V1045z"/>
	<path class="st0" d="M11945,881c-101-46-151-169-109-269c60-146,247-177,351-59c69,79,69,189,0,273C12129,896,12028,919,11945,881z
		"/>
</g>
</svg>
